<svg width="308" height="360" viewBox="0 0 308 360" fill="none" xmlns="http://www.w3.org/2000/svg">
<g filter="url(#filter0_d_126_4587)">
<rect width="300" height="344" fill="white"/>
<path d="M24.528 36.368C24.528 35.2587 24.768 34.272 25.248 33.408C25.728 32.5333 26.3947 31.856 27.248 31.376C28.112 30.8853 29.088 30.64 30.176 30.64C31.5093 30.64 32.6507 30.992 33.6 31.696C34.5493 32.4 35.184 33.36 35.504 34.576H32.496C32.272 34.1067 31.952 33.7493 31.536 33.504C31.1307 33.2587 30.6667 33.136 30.144 33.136C29.3013 33.136 28.6187 33.4293 28.096 34.016C27.5733 34.6027 27.312 35.3867 27.312 36.368C27.312 37.3493 27.5733 38.1333 28.096 38.72C28.6187 39.3067 29.3013 39.6 30.144 39.6C30.6667 39.6 31.1307 39.4773 31.536 39.232C31.952 38.9867 32.272 38.6293 32.496 38.16H35.504C35.184 39.376 34.5493 40.336 33.6 41.04C32.6507 41.7333 31.5093 42.08 30.176 42.08C29.088 42.08 28.112 41.84 27.248 41.36C26.3947 40.8693 25.728 40.192 25.248 39.328C24.768 38.464 24.528 37.4773 24.528 36.368ZM36.6355 37.52C36.6355 36.6027 36.8062 35.7973 37.1475 35.104C37.4995 34.4107 37.9742 33.8773 38.5715 33.504C39.1688 33.1307 39.8355 32.944 40.5715 32.944C41.2008 32.944 41.7502 33.072 42.2195 33.328C42.6995 33.584 43.0675 33.92 43.3235 34.336V33.072H46.0595V42H43.3235V40.736C43.0568 41.152 42.6835 41.488 42.2035 41.744C41.7342 42 41.1848 42.128 40.5555 42.128C39.8302 42.128 39.1688 41.9413 38.5715 41.568C37.9742 41.184 37.4995 40.6453 37.1475 39.952C36.8062 39.248 36.6355 38.4373 36.6355 37.52ZM43.3235 37.536C43.3235 36.8533 43.1315 36.3147 42.7475 35.92C42.3742 35.5253 41.9155 35.328 41.3715 35.328C40.8275 35.328 40.3635 35.5253 39.9795 35.92C39.6062 36.304 39.4195 36.8373 39.4195 37.52C39.4195 38.2027 39.6062 38.7467 39.9795 39.152C40.3635 39.5467 40.8275 39.744 41.3715 39.744C41.9155 39.744 42.3742 39.5467 42.7475 39.152C43.1315 38.7573 43.3235 38.2187 43.3235 37.536ZM53.0149 39.68V42H51.6229C50.6309 42 49.8575 41.76 49.3029 41.28C48.7482 40.7893 48.4709 39.9947 48.4709 38.896V35.344H47.3829V33.072H48.4709V30.896H51.2069V33.072H52.9989V35.344H51.2069V38.928C51.2069 39.1947 51.2709 39.3867 51.3989 39.504C51.5269 39.6213 51.7402 39.68 52.0389 39.68H53.0149ZM62.9549 37.392C62.9549 37.648 62.9389 37.9147 62.9069 38.192H56.7149C56.7575 38.7467 56.9335 39.1733 57.2429 39.472C57.5629 39.76 57.9522 39.904 58.4109 39.904C59.0935 39.904 59.5682 39.616 59.8349 39.04H62.7469C62.5975 39.6267 62.3255 40.1547 61.9309 40.624C61.5469 41.0933 61.0615 41.4613 60.4749 41.728C59.8882 41.9947 59.2322 42.128 58.5069 42.128C57.6322 42.128 56.8535 41.9413 56.1709 41.568C55.4882 41.1947 54.9549 40.6613 54.5709 39.968C54.1869 39.2747 53.9949 38.464 53.9949 37.536C53.9949 36.608 54.1815 35.7973 54.5549 35.104C54.9389 34.4107 55.4722 33.8773 56.1549 33.504C56.8375 33.1307 57.6215 32.944 58.5069 32.944C59.3709 32.944 60.1389 33.1253 60.8109 33.488C61.4829 33.8507 62.0055 34.368 62.3789 35.04C62.7629 35.712 62.9549 36.496 62.9549 37.392ZM60.1549 36.672C60.1549 36.2027 59.9949 35.8293 59.6749 35.552C59.3549 35.2747 58.9549 35.136 58.4749 35.136C58.0162 35.136 57.6269 35.2693 57.3069 35.536C56.9975 35.8027 56.8055 36.1813 56.7309 36.672H60.1549ZM67.7903 32.944C68.4196 32.944 68.9689 33.072 69.4383 33.328C69.9183 33.584 70.2863 33.92 70.5423 34.336V33.072H73.2783V41.984C73.2783 42.8053 73.1129 43.5467 72.7823 44.208C72.4623 44.88 71.9663 45.4133 71.2943 45.808C70.6329 46.2027 69.8063 46.4 68.8143 46.4C67.4916 46.4 66.4196 46.0853 65.5983 45.456C64.7769 44.8373 64.3076 43.9947 64.1903 42.928H66.8943C66.9796 43.2693 67.1823 43.536 67.5023 43.728C67.8223 43.9307 68.2169 44.032 68.6863 44.032C69.2516 44.032 69.6996 43.8667 70.0303 43.536C70.3716 43.216 70.5423 42.6987 70.5423 41.984V40.72C70.2756 41.136 69.9076 41.4773 69.4383 41.744C68.9689 42 68.4196 42.128 67.7903 42.128C67.0543 42.128 66.3876 41.9413 65.7903 41.568C65.1929 41.184 64.7183 40.6453 64.3663 39.952C64.0249 39.248 63.8543 38.4373 63.8543 37.52C63.8543 36.6027 64.0249 35.7973 64.3663 35.104C64.7183 34.4107 65.1929 33.8773 65.7903 33.504C66.3876 33.1307 67.0543 32.944 67.7903 32.944ZM70.5423 37.536C70.5423 36.8533 70.3503 36.3147 69.9663 35.92C69.5929 35.5253 69.1343 35.328 68.5903 35.328C68.0463 35.328 67.5823 35.5253 67.1983 35.92C66.8249 36.304 66.6383 36.8373 66.6383 37.52C66.6383 38.2027 66.8249 38.7467 67.1983 39.152C67.5823 39.5467 68.0463 39.744 68.5903 39.744C69.1343 39.744 69.5929 39.5467 69.9663 39.152C70.3503 38.7573 70.5423 38.2187 70.5423 37.536ZM79.3216 42.128C78.447 42.128 77.6576 41.9413 76.9536 41.568C76.2603 41.1947 75.711 40.6613 75.3056 39.968C74.911 39.2747 74.7136 38.464 74.7136 37.536C74.7136 36.6187 74.9163 35.8133 75.3216 35.12C75.727 34.416 76.2816 33.8773 76.9856 33.504C77.6896 33.1307 78.479 32.944 79.3536 32.944C80.2283 32.944 81.0176 33.1307 81.7216 33.504C82.4256 33.8773 82.9803 34.416 83.3856 35.12C83.791 35.8133 83.9936 36.6187 83.9936 37.536C83.9936 38.4533 83.7856 39.264 83.3696 39.968C82.9643 40.6613 82.4043 41.1947 81.6896 41.568C80.9856 41.9413 80.1963 42.128 79.3216 42.128ZM79.3216 39.76C79.8443 39.76 80.287 39.568 80.6496 39.184C81.023 38.8 81.2096 38.2507 81.2096 37.536C81.2096 36.8213 81.0283 36.272 80.6656 35.888C80.3136 35.504 79.8763 35.312 79.3536 35.312C78.8203 35.312 78.3776 35.504 78.0256 35.888C77.6736 36.2613 77.4976 36.8107 77.4976 37.536C77.4976 38.2507 77.6683 38.8 78.0096 39.184C78.3616 39.568 78.799 39.76 79.3216 39.76ZM88.1811 34.56C88.5011 34.0693 88.9011 33.6853 89.3811 33.408C89.8611 33.12 90.3945 32.976 90.9811 32.976V35.872H90.2291C89.5465 35.872 89.0345 36.0213 88.6931 36.32C88.3518 36.608 88.1811 37.12 88.1811 37.856V42H85.4451V33.072H88.1811V34.56ZM93.6649 32.144C93.1849 32.144 92.7902 32.0053 92.4809 31.728C92.1822 31.44 92.0329 31.088 92.0329 30.672C92.0329 30.2453 92.1822 29.8933 92.4809 29.616C92.7902 29.328 93.1849 29.184 93.6649 29.184C94.1342 29.184 94.5182 29.328 94.8169 29.616C95.1262 29.8933 95.2809 30.2453 95.2809 30.672C95.2809 31.088 95.1262 31.44 94.8169 31.728C94.5182 32.0053 94.1342 32.144 93.6649 32.144ZM95.0249 33.072V42H92.2889V33.072H95.0249ZM96.4636 37.52C96.4636 36.6027 96.6343 35.7973 96.9756 35.104C97.3276 34.4107 97.8023 33.8773 98.3996 33.504C98.997 33.1307 99.6636 32.944 100.4 32.944C101.029 32.944 101.578 33.072 102.048 33.328C102.528 33.584 102.896 33.92 103.152 34.336V33.072H105.888V42H103.152V40.736C102.885 41.152 102.512 41.488 102.032 41.744C101.562 42 101.013 42.128 100.384 42.128C99.6583 42.128 98.997 41.9413 98.3996 41.568C97.8023 41.184 97.3276 40.6453 96.9756 39.952C96.6343 39.248 96.4636 38.4373 96.4636 37.52ZM103.152 37.536C103.152 36.8533 102.96 36.3147 102.576 35.92C102.202 35.5253 101.744 35.328 101.2 35.328C100.656 35.328 100.192 35.5253 99.8076 35.92C99.4343 36.304 99.2476 36.8373 99.2476 37.52C99.2476 38.2027 99.4343 38.7467 99.8076 39.152C100.192 39.5467 100.656 39.744 101.2 39.744C101.744 39.744 102.202 39.5467 102.576 39.152C102.96 38.7573 103.152 38.2187 103.152 37.536ZM111.499 42.128C110.72 42.128 110.027 41.9947 109.419 41.728C108.811 41.4613 108.331 41.0987 107.979 40.64C107.627 40.1707 107.43 39.648 107.387 39.072H110.091C110.123 39.3813 110.267 39.632 110.523 39.824C110.779 40.016 111.094 40.112 111.467 40.112C111.808 40.112 112.07 40.048 112.251 39.92C112.443 39.7813 112.539 39.6053 112.539 39.392C112.539 39.136 112.406 38.9493 112.139 38.832C111.872 38.704 111.44 38.5653 110.843 38.416C110.203 38.2667 109.67 38.112 109.243 37.952C108.816 37.7813 108.448 37.52 108.139 37.168C107.83 36.8053 107.675 36.32 107.675 35.712C107.675 35.2 107.814 34.736 108.091 34.32C108.379 33.8933 108.795 33.5573 109.339 33.312C109.894 33.0667 110.55 32.944 111.307 32.944C112.427 32.944 113.307 33.2213 113.947 33.776C114.598 34.3307 114.971 35.0667 115.067 35.984H112.539C112.496 35.6747 112.358 35.4293 112.123 35.248C111.899 35.0667 111.6 34.976 111.227 34.976C110.907 34.976 110.662 35.04 110.491 35.168C110.32 35.2853 110.235 35.4507 110.235 35.664C110.235 35.92 110.368 36.112 110.635 36.24C110.912 36.368 111.339 36.496 111.915 36.624C112.576 36.7947 113.115 36.9653 113.531 37.136C113.947 37.296 114.31 37.5627 114.619 37.936C114.939 38.2987 115.104 38.7893 115.115 39.408C115.115 39.9307 114.966 40.4 114.667 40.816C114.379 41.2213 113.958 41.5413 113.403 41.776C112.859 42.0107 112.224 42.128 111.499 42.128Z" fill="#EB9B00"/>
<rect width="300" height="64" transform="translate(0 56)" fill="white"/>
<path d="M26.688 92.144H28.832C30.496 92.144 31.2 91.36 31.2 90.112C31.2 88.816 30.496 88.048 28.832 88.048H26.688V92.144ZM32.688 90.112C32.688 91.808 31.6 93.344 28.832 93.344H26.688V98H25.232V86.848H28.832C31.456 86.848 32.688 88.288 32.688 90.112ZM40.4656 90.128C40.4656 88.864 39.7616 88.048 38.0976 88.048H35.9536V92.272H38.0976C39.7456 92.272 40.4656 91.376 40.4656 90.128ZM34.4976 86.848H38.0976C40.7216 86.848 41.9696 88.304 41.9696 90.128C41.9696 91.552 41.1856 92.912 39.3136 93.328L42.1136 98H40.3696L37.7136 93.44H35.9536V98H34.4976V86.848ZM54.888 92.416C54.888 95.76 52.44 98.112 49.288 98.112C46.152 98.112 43.688 95.76 43.688 92.416C43.688 89.072 46.152 86.72 49.288 86.72C52.44 86.72 54.888 89.072 54.888 92.416ZM45.176 92.416C45.176 95.136 46.936 96.848 49.288 96.848C51.64 96.848 53.4 95.136 53.4 92.416C53.4 89.68 51.64 87.984 49.288 87.984C46.936 87.984 45.176 89.68 45.176 92.416ZM61.8661 86.72C64.2181 86.72 66.1701 87.936 67.0021 90.08H65.2581C64.6501 88.784 63.4341 88.032 61.8661 88.032C59.5141 88.032 57.7541 89.728 57.7541 92.416C57.7541 95.088 59.5141 96.784 61.8661 96.784C64.0581 96.784 65.5621 95.376 65.7861 93.168H61.3381V91.984H67.3381V93.104C67.0821 95.872 64.8901 98.096 61.8661 98.096C58.7301 98.096 56.2661 95.76 56.2661 92.416C56.2661 89.072 58.7301 86.72 61.8661 86.72ZM75.2313 90.128C75.2313 88.864 74.5273 88.048 72.8633 88.048H70.7193V92.272H72.8633C74.5113 92.272 75.2313 91.376 75.2313 90.128ZM69.2633 86.848H72.8633C75.4873 86.848 76.7353 88.304 76.7353 90.128C76.7353 91.552 75.9513 92.912 74.0793 93.328L76.8793 98H75.1353L72.4793 93.44H70.7193V98H69.2633V86.848ZM86.4856 98L85.5896 95.52H80.7256L79.8296 98H78.2936L82.3256 86.912H84.0056L88.0216 98H86.4856ZM85.1736 94.336L83.1576 88.704L81.1416 94.336H85.1736ZM89.7789 98V86.928H91.3469L95.4429 96.08L99.5389 86.928H101.091V98H99.6349V89.744L95.9549 98H94.9309L91.2349 89.728V98H89.7789ZM111.048 98L110.152 95.52H105.288L104.392 98H102.856L106.888 86.912H108.568L112.584 98H111.048ZM109.736 94.336L107.72 88.704L105.704 94.336H109.736ZM113.797 92.416C113.797 89.072 116.245 86.704 119.365 86.704C121.781 86.704 123.701 87.92 124.533 90.08H122.789C122.181 88.736 120.997 87.984 119.365 87.984C117.029 87.984 115.285 89.68 115.285 92.416C115.285 95.136 117.029 96.832 119.365 96.832C120.997 96.832 122.181 96.08 122.789 94.752H124.533C123.765 96.72 122.069 97.904 119.925 98.08V98.928C121.157 98.912 121.989 99.456 121.989 100.512C121.989 101.52 121.173 102.16 120.037 102.16H118.197V101.216H119.749C120.437 101.216 120.773 101.024 120.773 100.512C120.773 100.016 120.437 99.824 119.749 99.824H118.949V98.08C116.037 97.888 113.797 95.616 113.797 92.416ZM134.189 98L133.293 95.52H128.429L127.533 98H125.997L130.029 86.912H131.709L135.725 98H134.189ZM128.509 85.968C128.669 84.864 129.277 84.288 130.109 84.288C130.957 84.288 131.277 85.024 131.933 85.024C132.285 85.024 132.573 84.8 132.637 84.336H133.469C133.341 85.424 132.701 86 131.869 86C131.005 86 130.685 85.264 130.045 85.264C129.693 85.264 129.421 85.488 129.357 85.968H128.509ZM132.877 94.336L130.861 88.704L128.845 94.336H132.877ZM148.138 92.416C148.138 95.76 145.69 98.112 142.538 98.112C139.402 98.112 136.938 95.76 136.938 92.416C136.938 89.072 139.402 86.72 142.538 86.72C145.69 86.72 148.138 89.072 148.138 92.416ZM138.426 92.416C138.426 95.136 140.186 96.848 142.538 96.848C144.89 96.848 146.65 95.136 146.65 92.416C146.65 89.68 144.89 87.984 142.538 87.984C140.186 87.984 138.426 89.68 138.426 92.416Z" fill="url(#paint0_linear_126_4587)"/>
<rect width="300" height="56" transform="translate(0 120)" fill="white"/>
<path d="M31.536 142.848V144.032H26.688V147.792H30.624V148.976H26.688V154H25.232V142.848H31.536ZM39.1665 154L36.5105 149.44H34.7505V154H33.2945V142.848H36.8945C37.7372 142.848 38.4465 142.992 39.0225 143.28C39.6092 143.568 40.0465 143.957 40.3345 144.448C40.6225 144.939 40.7665 145.499 40.7665 146.128C40.7665 146.896 40.5425 147.573 40.0945 148.16C39.6572 148.747 38.9958 149.136 38.1105 149.328L40.9105 154H39.1665ZM34.7505 148.272H36.8945C37.6838 148.272 38.2758 148.08 38.6705 147.696C39.0652 147.301 39.2625 146.779 39.2625 146.128C39.2625 145.467 39.0652 144.955 38.6705 144.592C38.2865 144.229 37.6945 144.048 36.8945 144.048H34.7505V148.272ZM48.0849 154.112C47.0502 154.112 46.1062 153.872 45.2529 153.392C44.3995 152.901 43.7222 152.224 43.2209 151.36C42.7302 150.485 42.4849 149.504 42.4849 148.416C42.4849 147.328 42.7302 146.352 43.2209 145.488C43.7222 144.613 44.3995 143.936 45.2529 143.456C46.1062 142.965 47.0502 142.72 48.0849 142.72C49.1302 142.72 50.0795 142.965 50.9329 143.456C51.7862 143.936 52.4582 144.608 52.9489 145.472C53.4395 146.336 53.6849 147.317 53.6849 148.416C53.6849 149.515 53.4395 150.496 52.9489 151.36C52.4582 152.224 51.7862 152.901 50.9329 153.392C50.0795 153.872 49.1302 154.112 48.0849 154.112ZM48.0849 152.848C48.8635 152.848 49.5622 152.667 50.1809 152.304C50.8102 151.941 51.3009 151.424 51.6529 150.752C52.0155 150.08 52.1969 149.301 52.1969 148.416C52.1969 147.52 52.0155 146.741 51.6529 146.08C51.3009 145.408 50.8155 144.891 50.1969 144.528C49.5782 144.165 48.8742 143.984 48.0849 143.984C47.2955 143.984 46.5915 144.165 45.9729 144.528C45.3542 144.891 44.8635 145.408 44.5009 146.08C44.1489 146.741 43.9729 147.52 43.9729 148.416C43.9729 149.301 44.1489 150.08 44.5009 150.752C44.8635 151.424 45.3542 151.941 45.9729 152.304C46.6022 152.667 47.3062 152.848 48.0849 152.848ZM64.375 154H62.919L57.063 145.12V154H55.607V142.832H57.063L62.919 151.696V142.832H64.375V154ZM73.721 142.848V144.032H70.681V154H69.225V144.032H66.169V142.848H73.721ZM81.5933 147.52V148.752H75.2093V147.52H81.5933ZM85.7818 144.032V147.76H89.8458V148.96H85.7818V152.8H90.3258V154H84.3258V142.832H90.3258V144.032H85.7818ZM101.297 154H99.8409L93.9849 145.12V154H92.5289V142.832H93.9849L99.8409 151.696V142.832H101.297V154ZM107.251 142.848C108.467 142.848 109.518 143.077 110.403 143.536C111.299 143.984 111.982 144.629 112.451 145.472C112.931 146.315 113.171 147.307 113.171 148.448C113.171 149.589 112.931 150.581 112.451 151.424C111.982 152.256 111.299 152.896 110.403 153.344C109.518 153.781 108.467 154 107.251 154H103.779V142.848H107.251ZM107.251 152.8C108.691 152.8 109.79 152.421 110.547 151.664C111.304 150.896 111.683 149.824 111.683 148.448C111.683 147.061 111.299 145.979 110.531 145.2C109.774 144.421 108.68 144.032 107.251 144.032H105.235V152.8H107.251Z" fill="url(#paint1_linear_126_4587)"/>
<rect width="300" height="56" transform="translate(0 176)" fill="white"/>
<path d="M26.688 198.848V210H25.232V198.848H26.688ZM37.9375 210H36.4815L30.6255 201.12V210H29.1695V198.832H30.6255L36.4815 207.696V198.832H37.9375V210ZM46.7235 198.848V200.032H41.8755V203.792H45.8115V204.976H41.8755V210H40.4195V198.848H46.7235ZM54.354 210L51.698 205.44H49.938V210H48.482V198.848H52.082C52.9247 198.848 53.634 198.992 54.21 199.28C54.7967 199.568 55.234 199.957 55.522 200.448C55.81 200.939 55.954 201.499 55.954 202.128C55.954 202.896 55.73 203.573 55.282 204.16C54.8447 204.747 54.1833 205.136 53.298 205.328L56.098 210H54.354ZM49.938 204.272H52.082C52.8713 204.272 53.4633 204.08 53.858 203.696C54.2527 203.301 54.45 202.779 54.45 202.128C54.45 201.467 54.2527 200.955 53.858 200.592C53.474 200.229 52.882 200.048 52.082 200.048H49.938V204.272ZM64.8084 207.52H59.9444L59.0484 210H57.5124L61.5444 198.912H63.2244L67.2404 210H65.7044L64.8084 207.52ZM64.3924 206.336L62.3764 200.704L60.3604 206.336H64.3924ZM70.4536 200.032V203.76H74.5176V204.96H70.4536V208.8H74.9976V210H68.9976V198.832H74.9976V200.032H70.4536ZM80.7368 210.112C80.0008 210.112 79.3394 209.984 78.7528 209.728C78.1768 209.461 77.7234 209.099 77.3928 208.64C77.0621 208.171 76.8914 207.632 76.8808 207.024H78.4328C78.4861 207.547 78.6994 207.989 79.0728 208.352C79.4568 208.704 80.0114 208.88 80.7368 208.88C81.4301 208.88 81.9741 208.709 82.3688 208.368C82.7741 208.016 82.9768 207.568 82.9768 207.024C82.9768 206.597 82.8594 206.251 82.6248 205.984C82.3901 205.717 82.0968 205.515 81.7448 205.376C81.3928 205.237 80.9181 205.088 80.3208 204.928C79.5848 204.736 78.9928 204.544 78.5448 204.352C78.1074 204.16 77.7288 203.861 77.4088 203.456C77.0994 203.04 76.9448 202.485 76.9448 201.792C76.9448 201.184 77.0994 200.645 77.4088 200.176C77.7181 199.707 78.1501 199.344 78.7048 199.088C79.2701 198.832 79.9154 198.704 80.6408 198.704C81.6861 198.704 82.5394 198.965 83.2008 199.488C83.8728 200.011 84.2514 200.704 84.3368 201.568H82.7368C82.6834 201.141 82.4594 200.768 82.0648 200.448C81.6701 200.117 81.1474 199.952 80.4968 199.952C79.8888 199.952 79.3928 200.112 79.0088 200.432C78.6248 200.741 78.4328 201.179 78.4328 201.744C78.4328 202.149 78.5448 202.48 78.7688 202.736C79.0034 202.992 79.2861 203.189 79.6168 203.328C79.9581 203.456 80.4328 203.605 81.0408 203.776C81.7768 203.979 82.3688 204.181 82.8168 204.384C83.2648 204.576 83.6488 204.88 83.9688 205.296C84.2888 205.701 84.4488 206.256 84.4488 206.96C84.4488 207.504 84.3048 208.016 84.0168 208.496C83.7288 208.976 83.3021 209.365 82.7368 209.664C82.1714 209.963 81.5048 210.112 80.7368 210.112ZM93.4554 198.848V200.032H90.4154V210H88.9594V200.032H85.9034V198.848H93.4554ZM101.12 210L98.4636 205.44H96.7036V210H95.2476V198.848H98.8476C99.6903 198.848 100.4 198.992 100.976 199.28C101.562 199.568 102 199.957 102.288 200.448C102.576 200.939 102.72 201.499 102.72 202.128C102.72 202.896 102.496 203.573 102.048 204.16C101.61 204.747 100.949 205.136 100.064 205.328L102.864 210H101.12ZM96.7036 204.272H98.8476C99.637 204.272 100.229 204.08 100.624 203.696C101.018 203.301 101.216 202.779 101.216 202.128C101.216 201.467 101.018 200.955 100.624 200.592C100.24 200.229 99.6476 200.048 98.8476 200.048H96.7036V204.272ZM106.406 198.848V205.904C106.406 206.896 106.646 207.632 107.126 208.112C107.617 208.592 108.294 208.832 109.158 208.832C110.011 208.832 110.678 208.592 111.158 208.112C111.649 207.632 111.894 206.896 111.894 205.904V198.848H113.35V205.888C113.35 206.816 113.163 207.6 112.79 208.24C112.417 208.869 111.91 209.339 111.27 209.648C110.641 209.957 109.931 210.112 109.142 210.112C108.353 210.112 107.638 209.957 106.998 209.648C106.369 209.339 105.867 208.869 105.494 208.24C105.131 207.6 104.95 206.816 104.95 205.888V198.848H106.406ZM122.643 198.848V200.032H119.603V210H118.147V200.032H115.091V198.848H122.643ZM125.859 198.848V205.904C125.859 206.896 126.099 207.632 126.579 208.112C127.07 208.592 127.747 208.832 128.611 208.832C129.464 208.832 130.131 208.592 130.611 208.112C131.102 207.632 131.347 206.896 131.347 205.904V198.848H132.803V205.888C132.803 206.816 132.616 207.6 132.243 208.24C131.87 208.869 131.363 209.339 130.723 209.648C130.094 209.957 129.384 210.112 128.595 210.112C127.806 210.112 127.091 209.957 126.451 209.648C125.822 209.339 125.32 208.869 124.947 208.24C124.584 207.6 124.403 206.816 124.403 205.888V198.848H125.859ZM141.104 210L138.448 205.44H136.688V210H135.232V198.848H138.832C139.675 198.848 140.384 198.992 140.96 199.28C141.547 199.568 141.984 199.957 142.272 200.448C142.56 200.939 142.704 201.499 142.704 202.128C142.704 202.896 142.48 203.573 142.032 204.16C141.595 204.747 140.933 205.136 140.048 205.328L142.848 210H141.104ZM136.688 204.272H138.832C139.621 204.272 140.213 204.08 140.608 203.696C141.003 203.301 141.2 202.779 141.2 202.128C141.2 201.467 141.003 200.955 140.608 200.592C140.224 200.229 139.632 200.048 138.832 200.048H136.688V204.272ZM151.558 207.52H146.694L145.798 210H144.262L148.294 198.912H149.974L153.99 210H152.454L151.558 207.52ZM151.142 206.336L149.126 200.704L147.11 206.336H151.142Z" fill="url(#paint2_linear_126_4587)"/>
<rect width="300" height="56" transform="translate(0 232)" fill="white"/>
<path d="M30.816 260.256C31.2213 260.32 31.5893 260.485 31.92 260.752C32.2613 261.019 32.528 261.349 32.72 261.744C32.9227 262.139 33.024 262.56 33.024 263.008C33.024 263.573 32.88 264.085 32.592 264.544C32.304 264.992 31.8827 265.349 31.328 265.616C30.784 265.872 30.1387 266 29.392 266H25.232V254.848H29.232C29.9893 254.848 30.6347 254.976 31.168 255.232C31.7013 255.477 32.1013 255.813 32.368 256.24C32.6347 256.667 32.768 257.147 32.768 257.68C32.768 258.341 32.5867 258.891 32.224 259.328C31.872 259.755 31.4027 260.064 30.816 260.256ZM26.688 259.664H29.136C29.8187 259.664 30.3467 259.504 30.72 259.184C31.0933 258.864 31.28 258.421 31.28 257.856C31.28 257.291 31.0933 256.848 30.72 256.528C30.3467 256.208 29.808 256.048 29.104 256.048H26.688V259.664ZM29.264 264.8C29.9893 264.8 30.5547 264.629 30.96 264.288C31.3653 263.947 31.568 263.472 31.568 262.864C31.568 262.245 31.3547 261.76 30.928 261.408C30.5013 261.045 29.9307 260.864 29.216 260.864H26.688V264.8H29.264ZM36.4685 254.848V261.904C36.4685 262.896 36.7085 263.632 37.1885 264.112C37.6792 264.592 38.3565 264.832 39.2205 264.832C40.0738 264.832 40.7405 264.592 41.2205 264.112C41.7112 263.632 41.9565 262.896 41.9565 261.904V254.848H43.4125V261.888C43.4125 262.816 43.2258 263.6 42.8525 264.24C42.4792 264.869 41.9725 265.339 41.3325 265.648C40.7032 265.957 39.9938 266.112 39.2045 266.112C38.4152 266.112 37.7005 265.957 37.0605 265.648C36.4312 265.339 35.9298 264.869 35.5565 264.24C35.1938 263.6 35.0125 262.816 35.0125 261.888V254.848H36.4685ZM49.3774 266.112C48.6414 266.112 47.98 265.984 47.3934 265.728C46.8174 265.461 46.364 265.099 46.0334 264.64C45.7027 264.171 45.532 263.632 45.5214 263.024H47.0734C47.1267 263.547 47.34 263.989 47.7134 264.352C48.0974 264.704 48.652 264.88 49.3774 264.88C50.0707 264.88 50.6147 264.709 51.0094 264.368C51.4147 264.016 51.6174 263.568 51.6174 263.024C51.6174 262.597 51.5 262.251 51.2654 261.984C51.0307 261.717 50.7374 261.515 50.3854 261.376C50.0334 261.237 49.5587 261.088 48.9614 260.928C48.2254 260.736 47.6334 260.544 47.1854 260.352C46.748 260.16 46.3694 259.861 46.0494 259.456C45.74 259.04 45.5854 258.485 45.5854 257.792C45.5854 257.184 45.74 256.645 46.0494 256.176C46.3587 255.707 46.7907 255.344 47.3454 255.088C47.9107 254.832 48.556 254.704 49.2814 254.704C50.3267 254.704 51.18 254.965 51.8414 255.488C52.5134 256.011 52.892 256.704 52.9774 257.568H51.3774C51.324 257.141 51.1 256.768 50.7054 256.448C50.3107 256.117 49.788 255.952 49.1374 255.952C48.5294 255.952 48.0334 256.112 47.6494 256.432C47.2654 256.741 47.0734 257.179 47.0734 257.744C47.0734 258.149 47.1854 258.48 47.4094 258.736C47.644 258.992 47.9267 259.189 48.2574 259.328C48.5987 259.456 49.0734 259.605 49.6814 259.776C50.4174 259.979 51.0094 260.181 51.4574 260.384C51.9054 260.576 52.2894 260.88 52.6094 261.296C52.9294 261.701 53.0894 262.256 53.0894 262.96C53.0894 263.504 52.9454 264.016 52.6574 264.496C52.3694 264.976 51.9427 265.365 51.3774 265.664C50.812 265.963 50.1454 266.112 49.3774 266.112ZM56.688 254.848V266H55.232V254.848H56.688ZM67.9375 266H66.4815L60.6255 257.12V266H59.1695V254.832H60.6255L66.4815 263.696V254.832H67.9375V266ZM71.8755 256.032V259.76H75.9395V260.96H71.8755V264.8H76.4195V266H70.4195V254.832H76.4195V256.032H71.8755ZM82.1586 266.112C81.4226 266.112 80.7613 265.984 80.1746 265.728C79.5986 265.461 79.1453 265.099 78.8146 264.64C78.484 264.171 78.3133 263.632 78.3026 263.024H79.8546C79.908 263.547 80.1213 263.989 80.4946 264.352C80.8786 264.704 81.4333 264.88 82.1586 264.88C82.852 264.88 83.396 264.709 83.7906 264.368C84.196 264.016 84.3986 263.568 84.3986 263.024C84.3986 262.597 84.2813 262.251 84.0466 261.984C83.812 261.717 83.5186 261.515 83.1666 261.376C82.8146 261.237 82.34 261.088 81.7426 260.928C81.0066 260.736 80.4146 260.544 79.9666 260.352C79.5293 260.16 79.1506 259.861 78.8306 259.456C78.5213 259.04 78.3666 258.485 78.3666 257.792C78.3666 257.184 78.5213 256.645 78.8306 256.176C79.14 255.707 79.572 255.344 80.1266 255.088C80.692 254.832 81.3373 254.704 82.0626 254.704C83.108 254.704 83.9613 254.965 84.6226 255.488C85.2946 256.011 85.6733 256.704 85.7586 257.568H84.1586C84.1053 257.141 83.8813 256.768 83.4866 256.448C83.092 256.117 82.5693 255.952 81.9186 255.952C81.3106 255.952 80.8146 256.112 80.4306 256.432C80.0466 256.741 79.8546 257.179 79.8546 257.744C79.8546 258.149 79.9666 258.48 80.1906 258.736C80.4253 258.992 80.708 259.189 81.0386 259.328C81.38 259.456 81.8546 259.605 82.4626 259.776C83.1986 259.979 83.7906 260.181 84.2386 260.384C84.6866 260.576 85.0706 260.88 85.3906 261.296C85.7106 261.701 85.8706 262.256 85.8706 262.96C85.8706 263.504 85.7266 264.016 85.4386 264.496C85.1506 264.976 84.724 265.365 84.1586 265.664C83.5933 265.963 82.9266 266.112 82.1586 266.112ZM91.5493 266.112C90.8133 266.112 90.1519 265.984 89.5653 265.728C88.9893 265.461 88.5359 265.099 88.2053 264.64C87.8746 264.171 87.7039 263.632 87.6933 263.024H89.2453C89.2986 263.547 89.5119 263.989 89.8853 264.352C90.2693 264.704 90.8239 264.88 91.5493 264.88C92.2426 264.88 92.7866 264.709 93.1813 264.368C93.5866 264.016 93.7893 263.568 93.7893 263.024C93.7893 262.597 93.6719 262.251 93.4373 261.984C93.2026 261.717 92.9093 261.515 92.5573 261.376C92.2053 261.237 91.7306 261.088 91.1333 260.928C90.3973 260.736 89.8053 260.544 89.3573 260.352C88.9199 260.16 88.5413 259.861 88.2213 259.456C87.9119 259.04 87.7573 258.485 87.7573 257.792C87.7573 257.184 87.9119 256.645 88.2213 256.176C88.5306 255.707 88.9626 255.344 89.5173 255.088C90.0826 254.832 90.7279 254.704 91.4533 254.704C92.4986 254.704 93.3519 254.965 94.0133 255.488C94.6853 256.011 95.0639 256.704 95.1493 257.568H93.5493C93.4959 257.141 93.2719 256.768 92.8773 256.448C92.4826 256.117 91.9599 255.952 91.3093 255.952C90.7013 255.952 90.2053 256.112 89.8213 256.432C89.4373 256.741 89.2453 257.179 89.2453 257.744C89.2453 258.149 89.3573 258.48 89.5813 258.736C89.8159 258.992 90.0986 259.189 90.4293 259.328C90.7706 259.456 91.2453 259.605 91.8533 259.776C92.5893 259.979 93.1813 260.181 93.6293 260.384C94.0773 260.576 94.4613 260.88 94.7812 261.296C95.1013 261.701 95.2613 262.256 95.2613 262.96C95.2613 263.504 95.1173 264.016 94.8293 264.496C94.5413 264.976 94.1146 265.365 93.5493 265.664C92.9839 265.963 92.3173 266.112 91.5493 266.112Z" fill="url(#paint3_linear_126_4587)"/>
<rect width="300" height="56" transform="translate(0 288)" fill="white"/>
<path d="M28.704 310.848C29.92 310.848 30.9707 311.077 31.856 311.536C32.752 311.984 33.4347 312.629 33.904 313.472C34.384 314.315 34.624 315.307 34.624 316.448C34.624 317.589 34.384 318.581 33.904 319.424C33.4347 320.256 32.752 320.896 31.856 321.344C30.9707 321.781 29.92 322 28.704 322H25.232V310.848H28.704ZM28.704 320.8C30.144 320.8 31.2427 320.421 32 319.664C32.7573 318.896 33.136 317.824 33.136 316.448C33.136 315.061 32.752 313.979 31.984 313.2C31.2267 312.421 30.1333 312.032 28.704 312.032H26.688V320.8H28.704ZM38.0005 312.032V315.76H42.0645V316.96H38.0005V320.8H42.5445V322H36.5445V310.832H42.5445V312.032H38.0005ZM48.2836 322.112C47.5476 322.112 46.8863 321.984 46.2996 321.728C45.7236 321.461 45.2703 321.099 44.9396 320.64C44.609 320.171 44.4383 319.632 44.4276 319.024H45.9796C46.033 319.547 46.2463 319.989 46.6196 320.352C47.0036 320.704 47.5583 320.88 48.2836 320.88C48.977 320.88 49.521 320.709 49.9156 320.368C50.321 320.016 50.5236 319.568 50.5236 319.024C50.5236 318.597 50.4063 318.251 50.1716 317.984C49.937 317.717 49.6436 317.515 49.2916 317.376C48.9396 317.237 48.465 317.088 47.8676 316.928C47.1316 316.736 46.5396 316.544 46.0916 316.352C45.6543 316.16 45.2756 315.861 44.9556 315.456C44.6463 315.04 44.4916 314.485 44.4916 313.792C44.4916 313.184 44.6463 312.645 44.9556 312.176C45.265 311.707 45.697 311.344 46.2516 311.088C46.817 310.832 47.4623 310.704 48.1876 310.704C49.233 310.704 50.0863 310.965 50.7476 311.488C51.4196 312.011 51.7983 312.704 51.8836 313.568H50.2836C50.2303 313.141 50.0063 312.768 49.6116 312.448C49.217 312.117 48.6943 311.952 48.0436 311.952C47.4356 311.952 46.9396 312.112 46.5556 312.432C46.1716 312.741 45.9796 313.179 45.9796 313.744C45.9796 314.149 46.0916 314.48 46.3156 314.736C46.5503 314.992 46.833 315.189 47.1636 315.328C47.505 315.456 47.9796 315.605 48.5876 315.776C49.3236 315.979 49.9156 316.181 50.3636 316.384C50.8116 316.576 51.1956 316.88 51.5156 317.296C51.8356 317.701 51.9956 318.256 51.9956 318.96C51.9956 319.504 51.8516 320.016 51.5636 320.496C51.2756 320.976 50.849 321.365 50.2836 321.664C49.7183 321.963 49.0516 322.112 48.2836 322.112ZM55.5943 310.848V322H54.1383V310.848H55.5943ZM66.5238 314.08C66.2144 313.429 65.7664 312.928 65.1798 312.576C64.5931 312.213 63.9104 312.032 63.1318 312.032C62.3531 312.032 61.6491 312.213 61.0198 312.576C60.4011 312.928 59.9104 313.44 59.5478 314.112C59.1958 314.773 59.0198 315.541 59.0198 316.416C59.0198 317.291 59.1958 318.059 59.5478 318.72C59.9104 319.381 60.4011 319.893 61.0198 320.256C61.6491 320.608 62.3531 320.784 63.1318 320.784C64.2198 320.784 65.1158 320.459 65.8198 319.808C66.5238 319.157 66.9344 318.277 67.0518 317.168H62.6038V315.984H68.6038V317.104C68.5184 318.021 68.2304 318.864 67.7398 319.632C67.2491 320.389 66.6038 320.992 65.8038 321.44C65.0038 321.877 64.1131 322.096 63.1318 322.096C62.0971 322.096 61.1531 321.856 60.2998 321.376C59.4464 320.885 58.7691 320.208 58.2678 319.344C57.7771 318.48 57.5318 317.504 57.5318 316.416C57.5318 315.328 57.7771 314.352 58.2678 313.488C58.7691 312.613 59.4464 311.936 60.2998 311.456C61.1531 310.965 62.0971 310.72 63.1318 310.72C64.3158 310.72 65.3611 311.013 66.2678 311.6C67.1851 312.187 67.8518 313.013 68.2678 314.08H66.5238ZM79.2969 322H77.8409L71.9849 313.12V322H70.5289V310.832H71.9849L77.8409 319.696V310.832H79.2969V322ZM94.6045 322L93.1485 320.528C92.6045 321.093 92.0232 321.515 91.4045 321.792C90.7858 322.059 90.0872 322.192 89.3085 322.192C88.5405 322.192 87.8578 322.053 87.2605 321.776C86.6738 321.499 86.2152 321.104 85.8845 320.592C85.5645 320.08 85.4045 319.483 85.4045 318.8C85.4045 318.021 85.6232 317.339 86.0605 316.752C86.5085 316.155 87.1645 315.685 88.0285 315.344C87.6872 314.939 87.4418 314.565 87.2925 314.224C87.1432 313.883 87.0685 313.509 87.0685 313.104C87.0685 312.635 87.1858 312.213 87.4205 311.84C87.6658 311.456 88.0125 311.157 88.4605 310.944C88.9085 310.731 89.4258 310.624 90.0125 310.624C90.5885 310.624 91.0898 310.736 91.5165 310.96C91.9432 311.184 92.2632 311.499 92.4765 311.904C92.6898 312.299 92.7858 312.741 92.7645 313.232H91.3085C91.3192 312.795 91.1965 312.453 90.9405 312.208C90.6845 311.952 90.3538 311.824 89.9485 311.824C89.5218 311.824 89.1752 311.947 88.9085 312.192C88.6525 312.427 88.5245 312.731 88.5245 313.104C88.5245 313.424 88.6098 313.733 88.7805 314.032C88.9618 314.331 89.2605 314.699 89.6765 315.136L93.0045 318.48L93.2925 318.032L94.3805 316.208H95.9485L94.6365 318.48C94.4552 318.8 94.2418 319.136 93.9965 319.488L96.5085 322H94.6045ZM89.3085 320.944C89.8845 320.944 90.4018 320.832 90.8605 320.608C91.3298 320.384 91.7725 320.037 92.1885 319.568L88.9085 316.272C87.5432 316.795 86.8605 317.621 86.8605 318.752C86.8605 319.381 87.0845 319.904 87.5325 320.32C87.9912 320.736 88.5832 320.944 89.3085 320.944ZM103.562 310.848V317.904C103.562 318.896 103.802 319.632 104.282 320.112C104.773 320.592 105.45 320.832 106.314 320.832C107.168 320.832 107.834 320.592 108.314 320.112C108.805 319.632 109.05 318.896 109.05 317.904V310.848H110.506V317.888C110.506 318.816 110.32 319.6 109.946 320.24C109.573 320.869 109.066 321.339 108.426 321.648C107.797 321.957 107.088 322.112 106.298 322.112C105.509 322.112 104.794 321.957 104.154 321.648C103.525 321.339 103.024 320.869 102.65 320.24C102.288 319.6 102.106 318.816 102.106 317.888V310.848H103.562ZM117.495 316.432L120.919 322H119.271L116.599 317.648L114.055 322H112.439L115.847 316.432L112.423 310.848H114.055L116.743 315.216L119.303 310.848H120.935L117.495 316.432Z" fill="url(#paint4_linear_126_4587)"/>
</g>
<defs>
<filter id="filter0_d_126_4587" x="-8" y="0" width="316" height="360" filterUnits="userSpaceOnUse" color-interpolation-filters="sRGB">
<feFlood flood-opacity="0" result="BackgroundImageFix"/>
<feColorMatrix in="SourceAlpha" type="matrix" values="0 0 0 0 0 0 0 0 0 0 0 0 0 0 0 0 0 0 127 0" result="hardAlpha"/>
<feOffset dy="8"/>
<feGaussianBlur stdDeviation="4"/>
<feComposite in2="hardAlpha" operator="out"/>
<feColorMatrix type="matrix" values="0 0 0 0 0 0 0 0 0 0 0 0 0 0 0 0 0 0 0.25 0"/>
<feBlend mode="normal" in2="BackgroundImageFix" result="effect1_dropShadow_126_4587"/>
<feBlend mode="normal" in="SourceGraphic" in2="effect1_dropShadow_126_4587" result="shape"/>
</filter>
<linearGradient id="paint0_linear_126_4587" x1="76.228" y1="77.12" x2="200.817" y2="163.042" gradientUnits="userSpaceOnUse">
<stop stop-color="#002F52"/>
<stop offset="1" stop-color="#326589"/>
</linearGradient>
<linearGradient id="paint1_linear_126_4587" x1="61.6042" y1="133.12" x2="167.792" y2="185.846" gradientUnits="userSpaceOnUse">
<stop stop-color="#002F52"/>
<stop offset="1" stop-color="#326589"/>
</linearGradient>
<linearGradient id="paint2_linear_126_4587" x1="78.735" y1="189.12" x2="205.295" y2="280.59" gradientUnits="userSpaceOnUse">
<stop stop-color="#002F52"/>
<stop offset="1" stop-color="#326589"/>
</linearGradient>
<linearGradient id="paint3_linear_126_4587" x1="54.5012" y1="245.12" x2="146.882" y2="282.326" gradientUnits="userSpaceOnUse">
<stop stop-color="#002F52"/>
<stop offset="1" stop-color="#326589"/>
</linearGradient>
<linearGradient id="paint4_linear_126_4587" x1="64.9468" y1="301.12" x2="176.477" y2="361.422" gradientUnits="userSpaceOnUse">
<stop stop-color="#002F52"/>
<stop offset="1" stop-color="#326589"/>
</linearGradient>
</defs>
</svg>
